PathFileType	4	(X/Y/Z)	/Users/niels/Desktop/University/Third Semester/Perception and Action/Exam/Gymnastics Motion Tracking/Code for Gym Tracking/Analyzed Data/Webcam_Backflip/id5_3_baseline_Sports2D/id5_3_baseline_Sports2D_px_person00.trc
DataRate	CameraRate	NumFrames	NumMarkers	Units	OrigDataRate	OrigDataStartFrame	OrigNumFrames
29.8125	29.8125	10	22	m	29.8125	60	160
Frame#	Time	Hip			RHip			RKnee			RAnkle			RBigToe			RSmallToe			RHeel			LHip			LKnee			LAnkle			LBigToe			LSmallToe			LHeel			Neck			Head			Nose			RShoulder			RElbow			RWrist			LShoulder			LElbow			LWrist		
		X1	Y1	Z1	X2	Y2	Z2	X3	Y3	Z3	X4	Y4	Z4	X5	Y5	Z5	X6	Y6	Z6	X7	Y7	Z7	X8	Y8	Z8	X9	Y9	Z9	X10	Y10	Z10	X11	Y11	Z11	X12	Y12	Z12	X13	Y13	Z13	X14	Y14	Z14	X15	Y15	Z15	X16	Y16	Z16	X17	Y17	Z17	X18	Y18	Z18	X19	Y19	Z19	X20	Y20	Z20	X21	Y21	Z21	X22	Y22	Z22
60	2.012578616352201	0.8731203703333884	-0.493913270180596	0.0	0.872684790680397	-0.4950698494437967	0.0	0.8854547373702396	-0.6157738910535314	0.0	0.8594847095762689	-0.7212267953324766	0.0	0.892917276103696	-0.7451357613955668	0.0	0.8843573009125938	-0.7495778502247663	0.0	0.8467669746744804	-0.7323160585864166	0.0	0.8718709534093781	-0.4898200238735136	0.0	0.8655397533329419	-0.6054419082944483	0.0	0.8175784843543754	-0.7011710648751978	0.0	0.841253345709702	-0.7291655076524021	0.0	0.8338287184297927	-0.7259335883404261	0.0	0.8074321265944	-0.7107001094124455	0.0	0.9870727470826174	-0.437525074420306	0.0	1.0509494187812811	-0.42613891811592663	0.0	1.0230856871708047	-0.44776122382243044	0.0	0.9769176238444204	-0.4447115185131105	0.0	0.9807077821136594	-0.49384025816878585	0.0	1.024282528764943	-0.5261256169656687	0.0	0.9813357531645459	-0.423157513241422	0.0	1.0110266153254086	-0.4646252915136384	0.0	1.050354965500008	-0.45901395729335126	0.0
61	2.0461215932914043	0.8698244002471212	-0.5392343691055571	0.0	0.8724991427785149	-0.5403189737962983	0.0	0.8934671394215323	-0.6590833006650282	0.0	0.8759125886361656	-0.7686964933820002	0.0	0.9111178721926834	-0.786717284103043	0.0	0.9028286440321495	-0.7922251184026203	0.0	0.8635898031976392	-0.7814649330004098	0.0	0.8644294470300125	-0.5351365828282691	0.0	0.863532719569997	-0.6520092994181634	0.0	0.8239940376351883	-0.7486432698205112	0.0	0.8529775143878321	-0.7745271525516244	0.0	0.8394605082713353	-0.7674927354202363	0.0	0.8135340898792777	-0.7607315953180738	0.0	0.9694535033181625	-0.45089653446794253	0.0	1.0275752923847263	-0.4226839955160268	0.0	1.0072442717017076	-0.44979502733675675	0.0	0.9633480636407735	-0.4603612460308483	0.0	0.9880445455064087	-0.499494942953508	0.0	1.0391445388111795	-0.5115113047308003	0.0	0.9592271525926762	-0.4410370390246195	0.0	0.9989123766878527	-0.4807209260708829	0.0	1.0416181557507076	-0.4622007757074314	0.0
62	2.079664570230608	0.8687662920263278	-0.5813024370931801	0.0	0.8734018981035402	-0.5821945275266448	0.0	0.9012718133542582	-0.6982334662186209	0.0	0.8859122020055247	-0.8062093324158737	0.0	0.922117846469362	-0.8213474570235011	0.0	0.9136784109672121	-0.8268393224984967	0.0	0.8729669109236766	-0.8198213098959585	0.0	0.8610071205303989	-0.5776332595974379	0.0	0.8643953489526244	-0.6931298726321948	0.0	0.8280948577804662	-0.7876120131540204	0.0	0.8596376475963979	-0.812488893394905	0.0	0.8432953424450349	-0.8016511376706861	0.0	0.8176694132254928	-0.8004851374354203	0.0	0.9507840135272135	-0.4681876942327442	0.0	0.999730901473596	-0.4253593895462473	0.0	0.9884708167848826	-0.45664923433926785	0.0	0.9472208217573038	-0.4788097297391126	0.0	0.9883149590128523	-0.5011642818594133	0.0	1.039696036939721	-0.4904477259311459	0.0	0.9383298719111117	-0.46444034011120033	0.0	0.9885745258357829	-0.4960240938924132	0.0	1.0335820832268594	-0.4666267189380563	0.0
63	2.113207547169811	0.8685865930838575	-0.6166127152597456	0.0	0.8740812207860584	-0.6171679667852882	0.0	0.9081856199797387	-0.7298648309636331	0.0	0.8902949185147382	-0.8334732651165508	0.0	0.9271086876710856	-0.8485080759296305	0.0	0.9183183487532971	-0.8529331717277511	0.0	0.8761069880792577	-0.8475681128032708	0.0	0.8601829650974178	-0.6136637398913668	0.0	0.8670474065387014	-0.7260665895999634	0.0	0.8295690129765202	-0.816703399203205	0.0	0.8614171401401763	-0.8429347266196627	0.0	0.8445783525625915	-0.8275365721505716	0.0	0.8192837966452822	-0.8290459878597074	0.0	0.9329247390753945	-0.4864755931172966	0.0	0.9717377814691249	-0.43271277127469443	0.0	0.9692580018571301	-0.46688659793750076	0.0	0.9303572187918848	-0.4971852977673525	0.0	0.9819767470926075	-0.5006785968004112	0.0	1.0283065076373308	-0.46899465071162455	0.0	0.9204447428149252	-0.48910684583435965	0.0	0.9789121770074147	-0.5102145459465667	0.0	1.0250032236698912	-0.4742496565082647	0.0
64	2.1467505241090143	0.8682089915063235	-0.6423954276150221	0.0	0.8737258597399272	-0.6425506303703586	0.0	0.9139763344657886	-0.7510760272138769	0.0	0.890978507107448	-0.8502236513222623	0.0	0.9277085512535386	-0.8666362456732378	0.0	0.9186820104320176	-0.8692991985671638	0.0	0.8756022229846667	-0.864566592611571	0.0	0.8604713328869813	-0.6402561782240028	0.0	0.8707009124450924	-0.7485457589429657	0.0	0.8290988965945332	-0.8348794314706969	0.0	0.8595360296289218	-0.8648310686573631	0.0	0.8438357020228865	-0.8442775227358956	0.0	0.8189171524922036	-0.8459970004012656	0.0	0.9169884846604923	-0.5022962997223492	0.0	0.9475911019759053	-0.44205003337971366	0.0	0.9517639442537165	-0.47798427849712655	0.0	0.9143204992781585	-0.5121752677780878	0.0	0.9708585964380265	-0.4996155054577946	0.0	1.0104299765448272	-0.45204030085772967	0.0	0.9059357528113458	-0.5101487649933718	0.0	0.969039329171392	-0.5219839255720056	0.0	1.0155406374095737	-0.48357462397494105	0.0
65	2.180293501048218	0.8670947023291008	-0.6569106187794094	0.0	0.8721172852974554	-0.6566932911132466	0.0	0.9188007834027068	-0.7601181466218131	0.0	0.889971977923189	-0.8563386044963026	0.0	0.9257363102867329	-0.8737471026961179	0.0	0.9168569729407203	-0.874772688235152	0.0	0.8740396972405116	-0.8703783685341	0.0	0.8607663642831559	-0.6554652276386027	0.0	0.8749212932298922	-0.7591757703901466	0.0	0.8278548047183613	-0.8416134611675501	0.0	0.8558558225951658	-0.8761021876572512	0.0	0.8422988406372097	-0.851071832221342	0.0	0.8176103076113682	-0.8514445685314447	0.0	0.9033797638539492	-0.5122718680974475	0.0	0.9293056580631063	-0.4495046601773503	0.0	0.9372791543190058	-0.48640983584318814	0.0	0.9000443905236251	-0.520684583260611	0.0	0.9573086150110497	-0.498553470164075	0.0	0.9921614675394697	-0.44179833042835476	0.0	0.8941851672463812	-0.5235163308894456	0.0	0.958615114758369	-0.5297838382798384	0.0	1.0058899642852381	-0.49256299975802087	0.0
66	2.213836477987421	0.8651244341019809	-0.6595613297699234	0.0	0.8694530524588715	-0.6590530167243149	0.0	0.9227997699654504	-0.7568390657469453	0.0	0.8887830639892719	-0.8522053409289719	0.0	0.9229879536516974	-0.8688785309882174	0.0	0.914736078352485	-0.8693337341071189	0.0	0.8731457654395336	-0.8651735552938646	0.0	0.8604136522336512	-0.6585741405256164	0.0	0.8794493201155874	-0.7577999441249974	0.0	0.8270456005648398	-0.8371552859345766	0.0	0.8524032850838948	-0.8744983682349284	0.0	0.8413566898788681	-0.8475760018827738	0.0	0.8164647402576151	-0.8461012285299124	0.0	0.8920549044564049	-0.5139349605467483	0.0	0.9163884716672662	-0.4510632809680168	0.0	0.926037720452971	-0.48861092964512864	0.0	0.8878408303133116	-0.5206920660469158	0.0	0.9432584180192483	-0.49694285284284817	0.0	0.9777259976558655	-0.4378354156437394	0.0	0.8844735670393339	-0.5269736792168569	0.0	0.9476712211832946	-0.5325896240466509	0.0	0.996696714294538	-0.49981747090402234	0.0
67	2.2473794549266244	0.8623883334050344	-0.6511227060482665	0.0	0.8661052354170593	-0.6503938027488718	0.0	0.9258042102571231	-0.7428116057007917	0.0	0.8882741307618892	-0.8391477494262987	0.0	0.9209257939781589	-0.8536108285648826	0.0	0.9135986119802615	-0.8547532700422947	0.0	0.8736386284089352	-0.8506944155782361	0.0	0.8590954947343548	-0.6503211183951367	0.0	0.883929632513223	-0.7457565113691279	0.0	0.8274272523336568	-0.8230187409360685	0.0	0.850850857665304	-0.8597430092193489	0.0	0.8421098367775125	-0.8347117171323482	0.0	0.8162080855824123	-0.8317023171789371	0.0	0.8827178005620151	-0.5064960952007529	0.0	0.9070821442867252	-0.44438520414126975	0.0	0.9175396941939423	-0.4825731895352237	0.0	0.8776548467260705	-0.5118062947271281	0.0	0.9297291176678378	-0.49369166432681716	0.0	0.9682312379390752	-0.438251135656071	0.0	0.8762181420511148	-0.5202882876732078	0.0	0.9362850494746148	-0.5300692919961164	0.0	0.9877871471877899	-0.50437523977927	0.0
68	2.280922431865828	0.8590935032398939	-0.6337867271376416	0.0	0.8624444213717082	-0.6328354475023508	0.0	0.9273855685232729	-0.7210168743432637	0.0	0.8888059003878627	-0.8195280131143846	0.0	0.920575893493257	-0.8318959145523069	0.0	0.9140622091883963	-0.8342152207609409	0.0	0.8755549234806072	-0.8300231693595684	0.0	0.8567709687740654	-0.6328988830439511	0.0	0.8876216002401239	-0.7257908964693185	0.0	0.8288747833256077	-0.8021828693115691	0.0	0.8518651497981005	-0.835175118406826	0.0	0.8448405290518209	-0.8151268886869845	0.0	0.816822648901836	-0.8112327635266118	0.0	0.8748931402837836	-0.4909804699986901	0.0	0.8998429107009525	-0.42965970811732984	0.0	0.9109672443664788	-0.4684541430466238	0.0	0.8692199252418287	-0.4952297361467286	0.0	0.9169397777650267	-0.48784207488238046	0.0	0.9620998771041736	-0.44077237348150566	0.0	0.8687631864853964	-0.5048511414422333	0.0	0.9244112107421574	-0.5224594590214303	0.0	0.9783252323322105	-0.5055725759063653	0.0
69	2.314465408805031	0.8554818584060305	-0.6106396597546462	0.0	0.8587241320105363	-0.6094123420393717	0.0	0.9270763716348359	-0.695117943816375	0.0	0.8904473196253925	-0.7964134327183272	0.0	0.922485850526114	-0.8081739973984575	0.0	0.9162742805467348	-0.811343703219242	0.0	0.8786507607676707	-0.8066013635344441	0.0	0.8535996280735733	-0.6094513834376015	0.0	0.8894743810150141	-0.7014785493210745	0.0	0.8304693246027672	-0.7784881772102239	0.0	0.8547557276636649	-0.8067313374378393	0.0	0.8487601871670066	-0.7926247571023918	0.0	0.8176176314064953	-0.788361649290622	0.0	0.8679963918473511	-0.4696875177821285	0.0	0.8938288370677364	-0.4089306372307778	0.0	0.9054403599849717	-0.44804125071859474	0.0	0.8621114621917316	-0.4732473292583953	0.0	0.9047198636294452	-0.47894210225978723	0.0	0.956561395169771	-0.44322469214174703	0.0	0.8614769448626125	-0.483114064408039	0.0	0.9119381038217855	-0.5104207406648786	0.0	0.9674094917196803	-0.5030180628349659	0.0
